<?xml version="1.0" encoding="UTF-8"?>
<svg id="Layer_2" data-name="Layer 2" xmlns="http://www.w3.org/2000/svg" viewBox="0 0 2000 3400">
  <defs>
    <style>
      .cls-1 {
        fill: #fff;
      }
    </style>
  </defs>
  <polygon class="cls-1" points="1926.48 3000.47 1928.22 2990.62 4867.76 3588.67 4866.03 3598.53 1926.48 3000.47"/>
  <polygon class="cls-1" points="1827.17 2966.2 1829.59 2956.5 4720.25 3758.15 4717.83 3767.85 1827.17 2966.2"/>
  <polygon class="cls-1" points="1730.48 2925.09 1733.57 2915.57 4561.28 3916.91 4558.19 3926.43 1730.48 2925.09"/>
  <polygon class="cls-1" points="1636.9 2877.33 1640.65 2868.06 4391.62 4064.21 4387.87 4073.48 1636.9 2877.33"/>
  <polygon class="cls-1" points="1546.88 2823.16 1551.27 2814.17 4212.09 4199.31 4207.71 4208.3 1546.88 2823.16"/>
  <polygon class="cls-1" points="1460.86 2762.85 1465.86 2754.18 4023.58 4321.55 4018.58 4330.22 1460.86 2762.85"/>
  <polygon class="cls-1" points="1379.25 2696.67 1384.85 2688.38 3827 4430.35 3821.41 4438.65 1379.25 2696.67"/>
  <polygon class="cls-1" points="1302.46 2624.97 1308.62 2617.09 3623.31 4525.17 3617.15 4533.06 1302.46 2624.97"/>
  <polygon class="cls-1" points="1230.86 2548.09 1237.55 2540.65 3413.51 4605.55 3406.81 4612.99 1230.86 2548.09"/>
  <polygon class="cls-1" points="1164.79 2466.4 1171.99 2459.45 3198.6 4671.1 3191.41 4678.05 1164.79 2466.4"/>
  <polygon class="cls-1" points="1104.59 2380.3 1112.25 2373.87 2979.65 4721.5 2971.99 4727.94 1104.59 2380.3"/>
  <polygon class="cls-1" points="1050.53 2290.2 1058.63 2284.32 2757.71 4756.51 2749.62 4762.39 1050.53 2290.2"/>
  <polygon class="cls-1" points="1002.9 2196.56 1011.38 2191.26 2533.88 4775.95 2525.39 4781.25 1002.9 2196.56"/>
  <polygon class="cls-1" points="961.91 2099.83 970.74 2095.13 2309.23 4779.72 2300.4 4784.42 961.91 2099.83"/>
  <polygon class="cls-1" points="927.77 2000.47 936.91 1996.4 2084.87 4767.82 2075.73 4771.89 927.77 2000.47"/>
  <polygon class="cls-1" points="900.64 1898.97 910.04 1895.54 1861.88 4740.29 1852.48 4743.71 900.64 1898.97"/>
  <polygon class="cls-1" points="880.66 1795.82 890.28 1793.06 1641.36 4697.28 1631.74 4700.03 880.66 1795.82"/>
  <polygon class="cls-1" points="867.92 1691.53 877.71 1689.45 1424.38 4638.99 1414.59 4641.07 867.92 1691.53"/>
  <polygon class="cls-1" points="862.49 1586.61 872.4 1585.22 1211.99 4565.7 1202.08 4567.09 862.49 1586.61"/>
  <polygon class="cls-1" points="864.39 1481.57 874.37 1480.87 1005.22 4477.78 995.24 4478.48 864.39 1481.57"/>
  <polygon class="cls-1" points="873.62 1376.91 883.62 1376.91 805.1 4375.65 795.1 4375.65 873.62 1376.91"/>
  <polygon class="cls-1" points="890.12 1273.15 900.1 1273.85 612.59 4259.8 602.61 4259.11 890.12 1273.15"/>
  <polygon class="cls-1" points="913.82 1170.8 923.73 1172.19 428.63 4130.81 418.72 4129.42 913.82 1170.8"/>
  <polygon class="cls-1" points="944.6 1070.34 954.39 1072.42 254.11 3989.31 244.32 3987.23 944.6 1070.34"/>
  <polygon class="cls-1" points="982.32 972.28 991.93 975.04 89.89 3835.97 80.27 3833.21 982.32 972.28"/>
  <polygon class="cls-1" points="1026.78 877.09 1036.18 880.52 -63.23 3671.55 -72.64 3668.13 1026.78 877.09"/>
  <polygon class="cls-1" points="1077.77 785.24 1086.91 789.31 -204.52 3496.85 -213.66 3492.78 1077.77 785.24"/>
  <polygon class="cls-1" points="1135.05 697.16 1143.89 701.86 -333.27 3312.72 -342.1 3308.02 1135.05 697.16"/>
  <polygon class="cls-1" points="1198.33 613.3 1206.82 618.6 -448.86 3120.06 -457.34 3114.76 1198.33 613.3"/>
  <polygon class="cls-1" points="1267.31 534.05 1275.41 539.93 -550.73 2919.8 -558.83 2913.92 1267.31 534.05"/>
  <polygon class="cls-1" points="1341.65 459.81 1349.32 466.24 -638.39 2712.93 -646.05 2706.5 1341.65 459.81"/>
  <polygon class="cls-1" points="1420.99 390.93 1428.18 397.88 -711.4 2500.44 -718.59 2493.49 1420.99 390.93"/>
  <polygon class="cls-1" points="1504.94 327.76 1511.63 335.19 -769.41 2283.38 -776.1 2275.95 1504.94 327.76"/>
  <polygon class="cls-1" points="1593.08 270.59 1599.24 278.48 -812.14 2062.81 -818.3 2054.92 1593.08 270.59"/>
  <polygon class="cls-1" points="1685.01 219.72 1690.6 228.01 -839.37 1839.78 -844.97 1831.49 1685.01 219.72"/>
  <polygon class="cls-1" points="1780.26 175.38 1785.26 184.04 -850.99 1615.41 -855.99 1606.74 1780.26 175.38"/>
  <polygon class="cls-1" points="1878.36 137.79 1882.75 146.78 -846.92 1390.76 -851.31 1381.77 1878.36 137.79"/>
  <polygon class="cls-1" points="1978.86 107.14 1982.6 116.41 -827.19 1166.95 -830.94 1157.68 1978.86 107.14"/>
  <polygon class="cls-1" points="2081.24 83.57 2084.33 93.08 -791.9 945.06 -794.99 935.55 2081.24 83.57"/>
  <polygon class="cls-1" points="2185.02 67.2 2187.44 76.91 -741.22 726.18 -743.64 716.47 2185.02 67.2"/>
  <polygon class="cls-1" points="2289.69 58.11 2291.43 67.96 -675.39 511.36 -677.13 501.51 2289.69 58.11"/>
  <polygon class="cls-1" points="2394.74 56.34 2395.78 66.29 -594.74 301.66 -595.78 291.71 2394.74 56.34"/>
  <polygon class="cls-1" points="2499.65 61.91 2500 71.91 -499.65 98.09 -500 88.09 2499.65 61.91"/>
</svg>